<svg width="99" height="96" viewBox="0 0 99 96" fill="none" xmlns="http://www.w3.org/2000/svg">
<path d="M47.5664 30.5907L48.8371 31.5104C48.8626 31.4751 51.4393 28.0101 53.7022 28.6082C55.8416 29.1729 55.4474 32.4751 55.4435 32.5065L56.9985 32.7026C57.2123 31.0809 56.8829 27.8179 54.1022 27.0845C50.7745 26.2099 47.6958 30.4103 47.5664 30.5907Z" fill="#AFFF2C"/>
<path d="M75.2042 30.8966C75.7925 30.9691 76.167 32.932 76.1003 34.5753L77.6691 34.64C77.7024 33.8047 77.7554 29.6259 75.3905 29.3455C74.4257 29.2298 73.1726 29.8102 71.5548 31.1103C70.8525 31.6814 70.1846 32.2936 69.5547 32.9438L70.6901 34.0262C72.6314 31.9927 74.5414 30.8221 75.2042 30.8966Z" fill="#AFFF2C"/>
<path d="M46.3531 21.192C46.4527 21.2329 46.5592 21.2542 46.6668 21.2548C46.8463 21.2549 47.0208 21.1956 47.163 21.0861C47.2772 20.9983 47.3664 20.8819 47.4214 20.7487C47.4765 20.6155 47.4956 20.4701 47.4767 20.3272C47.3924 19.6782 46.8884 16.2955 45.2138 13.4639C44.1215 11.6128 42.4057 10.1833 41.2389 9.35574C42.8744 8.68706 45.0275 8.78511 47.9258 11.905C50.7358 14.9307 52.0006 19.635 52.0182 19.7037L53.536 19.3115C53.4811 19.1036 52.1634 14.1718 49.0768 10.8441C45.7785 7.29283 42.6057 6.54571 39.4074 8.55764C39.3626 8.57322 39.3192 8.59291 39.278 8.61647C39.1534 8.68929 39.0502 8.79356 38.9786 8.91883C38.9071 9.0441 38.8696 9.18597 38.8701 9.33025C38.8701 10.0421 38.9799 13.7306 40.6761 16.6132C42.2959 19.3605 45.6903 20.9077 46.3531 21.192Z" fill="#AFFF2C"/>
<path d="M68.0483 48.6806L67.4883 55.6812L69.057 55.8067L69.6171 48.8061L68.0483 48.6806Z" fill="#AFFF2C"/>
<path d="M97.7197 52.7906C96.3348 49.8096 94.566 47.0223 92.4585 44.4998C91.6741 43.5703 90.8584 42.68 90.0093 41.8211C90.7351 41.2502 91.3584 40.5599 91.8526 39.7798C92.8664 38.2601 93.3782 36.5246 93.2919 34.8931C93.2593 33.7767 92.8704 32.6999 92.182 31.8203C91.9859 31.1948 91.5173 30.1398 90.3603 28.5828C88.4386 25.9904 84.5167 22.496 82.3597 20.6429C80.636 19.1663 78.8966 17.9251 77.9966 17.3093L78.3083 16.7956C79.6614 14.5836 81.0537 12.2971 81.8204 9.73615C82.0322 9.01844 82.2989 7.93404 82.1557 6.81238C82.1193 6.49398 82.0135 6.18742 81.8459 5.91427C81.1243 4.75535 79.981 5.12989 79.6045 5.25735C77.1377 6.07114 75.1434 7.61048 73.1334 10.2578C73.1076 10.2932 73.0741 10.3222 73.0353 10.3426C72.9966 10.363 72.9536 10.3742 72.9099 10.3754C72.8706 10.3774 72.8314 10.3703 72.7954 10.3547C72.7593 10.339 72.7273 10.3153 72.702 10.2852C67.3329 4.09647 60.2794 0.564809 52.3043 0.0628074L52.2278 0.043198V0.0569246H52.1788C44.9723 -0.366639 37.4717 1.73549 31.0457 5.9731C26.2551 9.13414 22.3881 13.2992 19.833 17.98C19.7644 18.0819 12.8814 28.1945 10.8852 30.6575C9.00858 32.9714 4.67685 37.913 4.07484 38.5895C1.68641 39.9543 0 43.2722 0 47.1392C0 52.2239 2.91592 56.3557 6.49857 56.3557C7.34208 56.3505 8.16955 56.1247 8.89876 55.7007C9.07329 55.6223 13.1775 53.7554 15.4307 52.1494C16.5809 51.2944 17.6621 50.3503 18.6643 49.3257C18.1897 53.2476 17.8289 57.7832 17.9975 61.7777C18.4172 71.5942 21.4312 81.8283 21.4606 81.9323L21.537 81.9087C22.1822 86.5758 25.6884 90.1545 29.9044 90.1545C33.3557 90.1545 36.403 87.7386 37.707 84.1854C39.1032 86.4169 41.0837 88.4642 43.5898 90.231C48.8569 93.943 55.8477 95.9883 63.2718 95.9883C70.696 95.9883 77.6887 93.9548 82.9479 90.2427C84.1337 89.4171 85.2416 88.4851 86.258 87.4582H86.3855V87.3268C89.5504 84.0383 91.2545 80.1458 91.2545 76.0573V68.2252C91.2484 67.0125 91.089 65.8055 90.7799 64.6328C92.5958 64.3289 94.6214 62.968 96.198 60.9247C97.3746 59.4049 98.1433 57.7028 98.3708 56.1341C98.5669 54.7653 98.3355 53.6103 97.7197 52.7906ZM81.34 21.8352C83.4519 23.6451 87.2679 27.0493 89.1014 29.5182C89.3132 29.8025 89.4936 30.0613 89.6544 30.3025C87.3914 29.8574 84.6853 31.1046 82.9499 33.5714C82.9526 32.1207 82.8332 30.6724 82.593 29.2417C82.0699 26.1286 81.03 23.1248 79.5163 20.3547C80.1006 20.8076 80.7242 21.3057 81.34 21.8352ZM19.2369 45.1822C19.1643 45.6626 19.0898 46.1627 19.0153 46.6902C18.6231 47.1216 16.4504 49.51 14.5228 50.8846C13.6371 51.4942 12.7165 52.0514 11.7657 52.5534C12.5963 50.8739 13.0202 49.0226 13.003 47.149C13.003 42.1761 10.2146 38.113 6.74173 37.9326C8.3497 36.0873 10.8048 33.2518 12.1049 31.6576C13.1168 30.4104 15.2758 27.3572 17.2308 24.5452C15.5621 30.9869 16.2954 37.7463 19.3879 44.2507C19.3349 44.5449 19.2859 44.8606 19.2369 45.1822ZM41.0033 85.909C39.7937 84.6114 38.8005 83.1276 38.0619 81.5146C38.0627 81.5087 38.0627 81.5028 38.0619 81.4969C37.9508 81.2459 37.8469 80.993 37.7501 80.738C37.7325 80.6871 37.7129 80.638 37.6952 80.589C37.6482 80.4635 37.6031 80.338 37.5619 80.2105L37.5109 80.0537C37.4442 79.8438 37.3815 79.6301 37.3246 79.4183L37.2658 79.1909C37.2266 79.032 37.1893 78.8712 37.156 78.7104C37.1324 78.5986 37.1089 78.4849 37.0893 78.3712C37.0697 78.2574 37.052 78.1516 37.0344 78.0398C37.0167 77.928 37.005 77.8437 36.9932 77.7496C36.9814 77.6554 36.9599 77.4986 36.9481 77.3711C36.9363 77.2436 36.9187 77.0691 36.9089 76.9201C36.9089 76.8377 36.8991 76.7554 36.8952 76.673C36.8952 76.4946 36.8814 76.3161 36.8814 76.1377C36.8814 76.1082 36.8814 76.0808 36.8814 76.0514V74.9081C37.9146 76.9633 39.3141 78.8127 41.0112 80.3655L41.0033 85.909ZM35.297 68.2252V72.808C33.8554 71.3951 31.9247 70.5923 29.9064 70.5666C26.1806 70.5666 23.0019 73.3708 21.8665 77.2495C20.9821 73.408 19.8055 67.4879 19.5683 61.7228C19.127 51.3866 22.3136 37.0815 22.343 36.9384L20.8135 36.5952C20.8135 36.6207 20.384 38.515 19.8663 41.3956C17.4504 35.1735 17.2798 28.7808 19.3996 22.7666C21.541 16.6877 25.9845 11.1833 31.9046 7.27516C38.0423 3.23169 45.19 1.21976 52.0493 1.61784C57.5616 3.05521 60.6147 6.83983 61.3775 13.1874L62.9345 12.9913C62.358 8.26544 60.552 4.74554 57.5263 2.47477C62.8953 3.87292 67.6643 6.86925 71.5235 11.3127C71.7017 11.5193 71.9242 11.683 72.1744 11.7916C72.4246 11.9003 72.6961 11.9511 72.9687 11.9402C73.2455 11.9316 73.5169 11.861 73.7629 11.7338C74.0089 11.6065 74.2233 11.4258 74.3904 11.2049C76.1925 8.82431 77.9514 7.45165 80.0987 6.74571C80.211 6.69866 80.3302 6.67018 80.4517 6.66139C80.4517 6.66139 80.4771 6.67707 80.5183 6.74179C80.5636 6.82485 80.5917 6.91624 80.6007 7.01043C80.683 7.64774 80.6007 8.35172 80.3183 9.28905C79.6183 11.6422 78.273 13.8463 76.971 15.972L76.7749 16.3073C76.518 16.0014 76.2552 15.6994 75.9905 15.4111L74.8473 16.4838C77.973 19.8174 80.2379 24.5609 81.0595 29.4985C81.9361 34.7617 81.0968 39.7288 78.6966 43.486C78.0162 44.5508 76.5533 46.3607 75.4591 47.6765C75.3994 46.2556 75.183 44.8457 74.8139 43.4722C74.0296 40.6583 71.7725 37.9992 68.9115 36.5305C65.7387 34.901 62.0972 34.799 58.6597 36.2422C56.3752 37.1998 54.3891 38.752 52.9079 40.7374C51.4267 42.7228 50.5046 45.0688 50.2374 47.5314C49.9237 50.4571 50.6061 53.4378 52.318 56.6086C51.314 56.5125 49.908 56.3419 48.4588 56.0537L48.4 56.0419L48.1588 55.9929L48.0902 55.9791C47.851 55.9282 47.6137 55.8733 47.3744 55.8164L47.245 55.785L47.0666 55.7419L46.9136 55.7007L46.7509 55.6575L46.5548 55.6046L46.4312 55.5693L46.1312 55.4811L46.0194 55.4458L45.8233 55.3791L45.7076 55.3399L45.5017 55.2693L45.4017 55.234C45.3017 55.1967 45.2056 55.1614 45.1056 55.1222L44.9546 55.0614L44.888 55.034L44.8017 54.9967L44.6938 54.9516H44.6781C44.4173 54.8379 44.1056 54.6947 43.7467 54.5241L43.5722 54.4398C41.4446 53.4142 38.5071 51.8298 38.4737 51.8082L37.7266 53.1809C37.8619 53.2534 39.9935 54.4045 41.9544 55.383C37.6619 58.9657 35.3186 63.4837 35.297 68.2252ZM58.8048 45.8018C61.0383 43.9095 63.7072 42.9585 66.1936 42.9585C68.5919 42.9585 70.8215 43.8429 72.3275 45.6214C75.2355 49.0511 74.0001 54.379 69.386 58.2872C67.1192 60.2089 64.4288 61.3404 61.809 61.4776C59.2597 61.611 57.1027 60.7795 55.7202 59.1441C52.8063 55.7027 54.1887 49.7159 58.8048 45.8018ZM52.6925 53.7299C51.8748 51.6396 51.5748 49.6453 51.7827 47.6981C52.0191 45.5142 52.8368 43.4336 54.1504 41.6729C55.4641 39.9123 57.2257 38.5361 59.2519 37.6875C62.2561 36.4266 65.4289 36.5109 68.182 37.9228C70.6646 39.1993 72.6216 41.4838 73.2805 43.8899C73.3367 44.0952 73.3896 44.305 73.4393 44.5194C69.79 40.3269 62.7973 40.3543 57.7831 44.6037C54.7731 47.1647 53.0043 50.5414 52.6925 53.7299ZM46.5665 90.2741C45.1404 89.4676 43.7995 88.5189 42.5643 87.4425V81.7146C42.895 81.976 43.2382 82.231 43.5937 82.4794C44.5453 83.1486 45.5382 83.7571 46.5665 84.3011V90.2741ZM51.6003 92.5351C50.4169 92.1289 49.2598 91.6502 48.1353 91.1016V85.0776C49.2631 85.5953 50.4201 86.0471 51.6003 86.4307V92.5351ZM56.785 93.8685C55.5657 93.6539 54.3586 93.3744 53.169 93.0312V86.9032C54.3599 87.2303 55.5669 87.4961 56.785 87.6994V93.8685ZM62.2208 94.4156C60.9274 94.3802 59.6367 94.2781 58.3538 94.1097V87.9308C59.6225 88.0896 60.9148 88.1877 62.2208 88.221V94.4156ZM68.0448 94.1254C66.635 94.3037 65.2163 94.4019 63.7954 94.4195V88.2426C65.216 88.2209 66.6345 88.1234 68.0448 87.9504V94.1254ZM73.1844 93.0822C72.009 93.4152 70.8171 93.6868 69.6135 93.896V87.7268C70.8293 87.5268 72.0196 87.2706 73.1844 86.9582V93.0822ZM79.026 90.7918C77.6493 91.5026 76.2202 92.107 74.7512 92.5998V86.4973C76.2148 86.0307 77.6433 85.4605 79.026 84.7913V90.7918ZM78.4593 66.1604C78.4476 64.3034 77.7201 61.7777 76.1258 60.3246H76.114L65.5446 66.7349C65.6491 67.8732 65.6655 69.0179 65.5936 70.1587C65.4406 72.3158 64.7876 74.21 63.7032 75.616C63.105 76.381 62.3507 77.0098 61.4905 77.4605C60.6304 77.9112 59.684 78.1735 58.7146 78.23C58.5185 78.2457 58.3008 78.2535 58.0949 78.2535C56.8438 78.2443 55.6083 77.9749 54.4669 77.4624C53.3255 76.9499 52.3032 76.2056 51.465 75.2768L47.298 77.8045L46.4744 76.4612L50.512 74.012C49.9139 73.0279 49.4968 71.9447 49.2805 70.8137C48.8243 68.3963 49.1392 65.8967 50.1806 63.668L51.6121 64.319C50.3747 66.9938 50.2394 70.5392 51.867 73.1884L63.8817 65.8996C63.7542 64.7779 63.5777 63.6562 63.4052 62.5503L63.3797 62.3914L64.9288 62.1463L64.9543 62.3071C65.0935 63.1974 65.2347 64.0994 65.3465 65.0073L74.6571 59.3579C73.6531 58.8617 72.5236 58.5499 71.4862 58.2656L71.9019 56.7518C73.304 57.1439 74.8551 57.5636 76.1964 58.4244L78.8241 56.8302L79.6379 58.1715L77.4808 59.4755C79.0104 61.0717 79.9928 63.6366 80.0085 66.1427L78.4593 66.1604ZM84.8167 86.6738C83.5384 87.9132 82.1218 89.0015 80.5948 89.9172V83.9697C81.4078 83.5133 82.1971 83.0158 82.9597 82.4794C83.6133 82.0166 84.2337 81.5355 84.8206 81.0361L84.8167 86.6738ZM89.6857 76.0514C89.6857 79.2732 88.4876 82.3029 86.3855 84.9384V79.6889H86.258C87.6481 78.2882 88.8052 76.6742 89.6857 74.9081V76.0514ZM93.0586 52.0337C91.5977 52.6514 90.1466 53.828 88.9739 55.3497C88.3109 56.2042 87.7673 57.1449 87.3581 58.146C84.603 54.8124 80.5046 52.0671 75.4611 50.3297C75.4611 50.2473 75.4611 50.1669 75.4611 50.0846C76.2219 49.1943 78.9339 45.994 79.9967 44.3292C81.3348 42.1952 82.2297 39.8137 82.6283 37.3266L82.9715 37.5973C85.8815 40.0347 88.8033 42.5839 91.2467 45.5057C92.8178 47.3839 94.1942 49.4167 95.3548 51.5729C94.5644 51.5509 93.7793 51.7085 93.0586 52.0337Z" fill="#AFFF2C"/>
<path d="M52.834 74.4417C53.2265 74.8453 53.6641 75.2025 54.138 75.5064C57.4716 77.638 60.9131 76.6575 62.4583 74.6554C63.3525 73.4945 63.8937 71.9101 64.0271 70.0472C64.0761 69.2485 64.0761 68.4476 64.0271 67.6489L52.834 74.4417Z" fill="#AFFF2C"/>
<path d="M63.6981 47.1417L59.0234 53.1958L60.2628 54.1527L64.9374 48.0987L63.6981 47.1417Z" fill="#AFFF2C"/>
</svg>
