<svg width="32" height="32" viewBox="0 0 32 32" fill="none" xmlns="http://www.w3.org/2000/svg">
<path fill-rule="evenodd" clip-rule="evenodd" d="M17.2 0V11.52L22.9608 1.5436L25.0392 2.7436L19.2784 12.7208L29.2564 6.96077L30.4564 9.03923L20.4784 14.8H32V17.2H20.4792L30.4564 22.9608L29.2564 25.0392L19.2784 19.2784L25.0392 29.2564L22.9608 30.4564L17.2 20.4792V32H14.8V20.4784L9.03923 30.4564L6.96077 29.2564L12.72 19.2792L2.74359 25.0392L1.54359 22.9608L11.5208 17.1992L0 17.2V14.8L11.52 14.7992L1.54359 9.03923L2.74359 6.96077L12.72 12.72L6.96077 2.7436L9.03923 1.5436L14.8 11.5208V0H17.2Z" fill="black"/>
</svg>
