<svg width="256" height="256" viewBox="0 0 256 256" fill="none" xmlns="http://www.w3.org/2000/svg">
<path fill-rule="evenodd" clip-rule="evenodd" d="M137.6 0V92.16L183.686 12.3488L200.314 21.9488L154.227 101.766L234.051 55.6861L243.651 72.3139L163.827 118.4H256V137.6H163.834L243.651 183.686L234.051 200.314L154.227 154.227L200.314 234.051L183.686 243.651L137.6 163.834V256H118.4V163.827L72.3138 243.651L55.6862 234.051L101.76 154.234L21.9488 200.314L12.3488 183.686L92.1664 137.594L0 137.6V118.4L92.16 118.394L12.3488 72.3139L21.9488 55.6861L101.76 101.76L55.6862 21.9488L72.3138 12.3488L118.4 92.1664V0H137.6Z" fill="#AFFF2C"/>
</svg>
