<svg width="114" height="96" viewBox="0 0 114 96" fill="none" xmlns="http://www.w3.org/2000/svg">
<g clip-path="url(#clip0_32_235)">
<path d="M1.71186 78.8264C1.67917 78.7886 1.65554 78.7439 1.64277 78.6957C1.63 78.6474 1.62842 78.5969 1.63816 78.5479C3.07118 71.215 9.83708 33.1437 1.76099 3.75866C1.74707 3.70834 1.745 3.65548 1.75495 3.60422C1.7649 3.55296 1.78659 3.50471 1.81833 3.46325C1.85007 3.42179 1.89099 3.38826 1.93787 3.36528C1.98475 3.3423 2.03633 3.3305 2.08854 3.33081H11.915L12.2016 4.29912C13.5427 8.78132 14.224 13.4349 14.2242 18.1134V21.2087C14.2203 21.4064 14.2698 21.6013 14.3674 21.7732C14.4651 21.945 14.6072 22.0874 14.779 22.1852C14.9794 22.2935 15.2095 22.3341 15.435 22.3009C15.6604 22.2677 15.869 22.1625 16.0298 22.001L19.8703 18.1564L23.7128 21.9969C23.8883 22.1735 24.1207 22.2824 24.3687 22.3041C24.6168 22.3258 24.8645 22.2591 25.068 22.1156C25.2103 22.0131 25.3256 21.8776 25.4041 21.7207C25.4825 21.5638 25.5217 21.3902 25.5184 21.2149V18.1114C25.5186 13.2733 24.8138 8.46102 23.4262 3.82622L23.2788 3.33081H37.0767C37.4188 3.33081 37.7468 3.46669 37.9887 3.70855C38.2306 3.95042 38.3665 4.27847 38.3665 4.62052V29.8355C38.3692 30.488 38.6302 31.1128 39.0926 31.5732C39.5549 32.0336 40.1808 32.2921 40.8333 32.2921H68.0607C68.2011 32.2947 68.3401 32.2637 68.4661 32.2018C68.5922 32.1398 68.7016 32.0487 68.7854 31.9359C68.8897 31.7831 68.9413 31.6003 68.932 31.4155C68.9228 31.2307 68.8533 31.054 68.7342 30.9123L40.8108 2.97664C39.987 2.15483 38.8709 1.69324 37.7073 1.69307H2.16019C1.84938 1.68875 1.54167 1.75526 1.26039 1.88756C0.979109 2.01987 0.731651 2.21449 0.536784 2.45666C0.34616 2.69819 0.214975 2.98114 0.153811 3.28269C0.0926474 3.58425 0.103218 3.89595 0.184671 4.19266C8.14612 33.1642 1.48667 70.8076 0.0413691 78.1876C-0.0551306 78.6473 0.0107042 79.1263 0.227662 79.5429C0.396712 79.8595 0.648738 80.1241 0.956722 80.3084C1.26471 80.4927 1.61704 80.5897 1.97595 80.589H34.3581V78.9512H1.97595C1.92531 78.952 1.87519 78.9411 1.82941 78.9194C1.78364 78.8978 1.74342 78.8659 1.71186 78.8264Z" fill="#AFFF2C"/>
<path d="M59.755 1.90166C60.8707 1.5516 61.6916 1.55364 62.1952 1.90166C62.7971 2.3111 62.9772 3.25484 63.0141 3.96521C63.1717 6.49551 62.1113 9.46186 60.8379 12.2358C60.5572 10.628 59.8187 9.1353 58.7109 7.93672L57.5256 9.06266C58.4016 10.0217 58.9935 11.2056 59.235 12.4818C59.4765 13.7581 59.3581 15.0764 58.8931 16.2892C58.8378 16.4079 58.7866 16.5287 58.7396 16.6495L60.2442 17.2923C60.2975 17.1776 60.3466 17.063 60.3937 16.9484C61.3681 14.8869 63.7899 13.4682 66.1687 13.5808L66.2547 11.943C64.9229 11.8817 63.5976 12.1636 62.406 12.7619C63.7347 9.83649 64.834 6.6818 64.6579 3.8608C64.5597 2.307 64.0438 1.19948 63.1328 0.558718C62.1809 -0.106613 60.9157 -0.178264 59.2698 0.335576C55.6831 1.45333 53.0443 4.10646 50.7188 6.80873L51.9593 7.87735C54.1273 5.35933 56.5716 2.89454 59.755 1.90166Z" fill="#AFFF2C"/>
<path d="M31.0478 47.1299C30.9094 47.3111 30.8391 47.5353 30.8492 47.7631C30.8593 47.9909 30.9491 48.208 31.103 48.3763C31.257 48.5446 31.4651 48.6534 31.6912 48.6838C31.9172 48.7142 32.1467 48.6641 32.3396 48.5424C32.7797 48.266 33.2649 47.9487 33.7726 47.6109C35.9692 46.1779 38.7022 44.3764 40.733 43.967L40.4095 42.362C38.4954 42.7469 36.2251 44.0755 34.1984 45.3775C34.2721 45.2526 34.3458 45.1277 34.4175 45.0028C34.6234 44.6525 34.7132 44.2459 34.6738 43.8413C34.6345 43.4368 34.4681 43.0551 34.1984 42.751C33.4921 41.9792 32.6139 42.2801 32.2823 42.3927C29.6767 43.2852 27.2033 44.5246 24.9288 46.0776C25.4603 45.1459 25.905 44.1673 26.2574 43.1543C26.8716 41.3712 25.936 40.6976 25.5082 40.4929C25.106 40.3078 24.6535 40.2624 24.2226 40.364C19.1844 41.4779 14.5025 43.8276 10.5986 47.2015L11.6713 48.4298C15.3659 45.2333 19.7983 43.0072 24.5685 41.9526C24.6418 41.9291 24.7205 41.9291 24.7937 41.9526H24.806C24.8296 42.1743 24.7935 42.3983 24.7016 42.6015C23.635 45.7275 21.465 48.3643 19.3646 50.9151L20.6073 51.9837C23.9218 48.3018 28.1204 45.5257 32.8063 43.9178C32.8473 43.9035 32.9394 43.8728 33.0111 43.8564C33.035 43.9023 33.0466 43.9535 33.0448 44.0052C33.043 44.0569 33.0279 44.1072 33.0008 44.1512C32.4143 45.1849 31.7619 46.1798 31.0478 47.1299Z" fill="#AFFF2C"/>
<path d="M42.8373 59.323C40.7507 59.3122 38.7042 59.8959 36.9373 61.0057C36.9701 60.6421 36.9701 60.2762 36.9373 59.9126C36.9203 59.7378 36.8628 59.5695 36.7695 59.4208C36.6762 59.2721 36.5495 59.1472 36.3996 59.0558C36.2497 58.9645 36.0806 58.9093 35.9057 58.8945C35.7308 58.8798 35.5548 58.9059 35.3917 58.9709C34.1721 59.4633 32.9939 60.0527 31.8685 60.7335C32.178 59.994 32.3567 59.2064 32.3967 58.4058C32.4129 58.091 32.3458 57.7775 32.2022 57.4969C31.8358 56.7927 31.1786 56.5511 30.241 56.7742C27.3136 57.4764 24.8078 59.0405 22.603 60.9341C22.8724 60.2184 23.1 59.4877 23.2847 58.7457C23.3465 58.498 23.339 58.2381 23.2632 57.9944C23.1874 57.7507 23.0461 57.5325 22.8548 57.3635C22.6634 57.1946 22.4294 57.0814 22.1782 57.0363C21.9269 56.9913 21.6681 57.016 21.43 57.1079C16.5384 59.0312 12.083 61.9175 8.32812 65.5955L9.47659 66.7624C12.957 63.3551 17.066 60.6561 21.5754 58.8153C20.8722 61.3453 19.6368 63.6961 17.9519 65.7102L17.6346 66.0786L18.8629 67.1555C18.9734 67.0285 19.084 66.9016 19.1925 66.7726C22.2427 63.2495 25.8867 59.5052 30.6198 58.369L30.7569 58.3403C30.6628 60.4776 29.1826 62.2484 27.4037 64.1789L28.5767 65.3212C30.5374 63.4241 32.8174 61.8877 35.3119 60.7826C35.2535 61.6054 34.9702 62.3964 34.493 63.0693C34.3518 63.229 34.2166 63.3948 34.0836 63.5647L35.3303 64.6231C35.4875 64.4561 35.6345 64.2797 35.7704 64.0949C36.656 63.1068 37.7409 62.3176 38.9537 61.7795C40.1666 61.2414 41.4797 60.9665 42.8066 60.973L42.8373 59.323Z" fill="#AFFF2C"/>
<path d="M113.311 69.1757L113.282 69.1061L107.499 60.6841C107.329 60.3296 107.064 60.0297 106.732 59.8181C106.401 59.6065 106.017 59.4916 105.624 59.4865L101.12 59.6359H84.3784C84.036 59.6352 83.702 59.5303 83.4207 59.335C83.1395 59.1397 82.9244 58.8633 82.8042 58.5427L78.4642 46.9271L64.6744 40.6136C64.487 40.5299 64.2788 40.5044 64.0768 40.5405C63.8747 40.5767 63.6882 40.6727 63.5414 40.8162C63.3946 40.9596 63.2944 41.1439 63.2537 41.3451C63.2129 41.5462 63.2336 41.755 63.3131 41.9443L66.2958 48.9046L47.4455 38.2737C47.2382 38.1566 46.9987 38.1093 46.7626 38.139C46.5264 38.1687 46.306 38.2736 46.1342 38.4384C45.9623 38.6031 45.8481 38.8188 45.8085 39.0535C45.7689 39.2882 45.8059 39.5295 45.9142 39.7415L51.7281 51.1176L57.321 69.1C57.3283 69.1223 57.33 69.1461 57.3261 69.1693C57.3222 69.1925 57.3127 69.2143 57.2985 69.233C57.2851 69.2526 57.267 69.2684 57.2459 69.2792C57.2248 69.2899 57.2014 69.2952 57.1777 69.2945H40.5137C39.944 69.2961 39.3981 69.5234 38.9956 69.9267C38.5931 70.3299 38.3668 70.8763 38.3663 71.446V94.6794C38.3641 94.9412 38.44 95.1977 38.5842 95.4162C38.7284 95.6348 38.9344 95.8054 39.1759 95.9065C39.4175 96.0075 39.6837 96.0343 39.9405 95.9834C40.1974 95.9326 40.4333 95.8065 40.6181 95.6211L46.0882 90.2472H78.155L78.7794 89.6208L83.7295 84.6728L88.0531 80.3492L88.1125 80.2898L94.2786 70.9322H112.173C112.381 70.9326 112.586 70.8809 112.769 70.7817C112.952 70.6825 113.108 70.539 113.221 70.3643C113.334 70.1897 113.402 69.9894 113.418 69.7817C113.434 69.5741 113.398 69.3658 113.313 69.1757H113.311ZM98.6738 61.2736L89.4288 75.307L92.9417 61.2736H98.6738ZM80.5625 85.5224L77.7661 88.3188L61.5525 74.7645L63.3274 71.8432L85.9814 80.0994L80.5625 85.5224ZM72.2326 57.1813L85.4982 78.1792L64.1933 70.4224L72.2326 57.1813ZM64.8832 49.9794H52.9912L48.1742 40.5624L64.8832 49.9794ZM60.533 76.046L75.5592 88.6095H47.7464L60.533 76.046Z" fill="#AFFF2C"/>
</g>
<defs>
<clipPath id="clip0_32_235">
<rect width="114" height="96" fill="white"/>
</clipPath>
</defs>
</svg>
