<svg width="106" height="96" viewBox="0 0 106 96" fill="none" xmlns="http://www.w3.org/2000/svg">
<g clip-path="url(#clip0_32_242)">
<path d="M105.702 69.7802C105.702 67.9151 103.993 66.4432 101.408 65.3899L101.44 65.2618C101.482 65.087 101.487 64.9053 101.456 64.7283C101.424 64.5513 101.356 64.3828 101.255 64.2337C101.155 64.0846 101.024 63.958 100.872 63.8621C100.72 63.7662 100.549 63.703 100.371 63.6766L97.3806 63.2258C97.3614 63.2243 97.343 63.217 97.3281 63.2047C97.3132 63.1925 97.3025 63.176 97.2973 63.1574C97.2894 63.1391 97.2874 63.1187 97.2916 63.0992C97.2958 63.0797 97.306 63.0619 97.3208 63.0485C101.807 58.1669 101.969 53.3664 101.309 50.2003C100.878 48.12 100.004 46.1571 98.7457 44.445L94.4281 39.4651C94.2826 39.295 94.0978 39.163 93.8897 39.0805L98.5321 37.2326C98.8507 37.1052 99.1057 36.8566 99.2411 36.5413C99.3764 36.2261 99.3812 35.87 99.2542 35.5512L98.0151 32.4578C97.948 32.2914 97.8471 32.1408 97.7188 32.0155C97.5904 31.8901 97.4374 31.7929 97.2695 31.7298C97.1016 31.6667 96.9224 31.6392 96.7433 31.6491C96.5642 31.6589 96.3891 31.7059 96.2291 31.7869L93.5458 33.1585C93.5298 33.1695 93.5108 33.1754 93.4913 33.1754C93.4719 33.1754 93.4529 33.1695 93.4368 33.1585C93.42 33.1478 93.4068 33.1323 93.3988 33.1141C93.3908 33.0958 93.3884 33.0756 93.392 33.056C94.1974 26.4695 91.5269 22.4788 89.1427 20.2911C87.5851 18.8466 85.7342 17.755 83.7163 17.0908L77.2837 15.574C76.9928 15.5034 76.6869 15.5274 76.4107 15.6427C76.1344 15.758 75.9021 15.9585 75.7477 16.2149C74.8376 17.7488 74.3911 19.4195 74.4936 20.915C74.6197 22.8035 75.8908 24.5959 77.726 25.4804C79.0711 26.1063 80.5763 26.3032 82.0372 26.0444C82.0094 27.0228 82.0051 28.4307 82.1119 29.8749C76.4719 32.3488 71.4771 34.7095 67.0078 37.0211C68.0695 31.5017 67.8635 25.8132 66.4053 20.3851C66.3925 20.3339 66.3797 20.2847 66.3647 20.2356L66.3177 20.0583C65.9852 18.8195 65.5654 17.6059 65.0615 16.4264L65.1192 16.1423C65.1833 15.8282 65.2495 15.5142 65.3158 15.2002C65.8905 12.4741 66.4865 9.64559 65.8584 6.84481C65.5379 5.41557 64.9462 4.28116 64.098 3.46506C60.5944 0.106688 55.8901 1.29451 51.737 2.34988L51.3631 2.44388C47.6794 0.771881 43.6684 -0.0552068 39.6237 0.023158C35.5791 0.101523 31.6031 1.08336 27.9869 2.89679L26.3291 2.69811L25.3613 2.57847C19.4885 1.84783 12.1778 0.937737 7.03555 4.74048C4.04463 6.95803 2.36758 10.983 2.57694 15.5099C2.76067 19.4515 4.19204 23.1047 5.56786 26.6383L9.82992 37.5167C9.69961 37.4953 9.57142 37.474 9.4411 37.4569C8.34087 37.3112 7.2226 37.3874 6.15229 37.6809C5.08198 37.9745 4.0813 38.4794 3.20931 39.166C0.130798 41.5673 -0.740842 45.7716 0.628572 51.6638C1.97235 57.4448 4.16854 62.3883 7.15305 66.3577C9.03175 68.8769 11.329 71.0549 13.9446 72.7967C12.9383 75.3348 12.0411 77.7574 11.1673 80.1031C10.599 81.6392 10.0628 83.0941 9.49451 84.5788L11.0904 85.1877C11.6608 83.6922 12.2248 82.169 12.7696 80.7013C13.6049 78.4475 14.4637 76.1231 15.4187 73.7004C16.5676 74.3476 17.7707 74.8937 19.0142 75.3326C17.9332 78.9089 16.9056 82.325 15.8737 85.7603C14.9679 88.7747 14.0578 91.8062 13.0964 94.9766L14.7414 95.4701C15.7007 92.2976 16.6108 89.2746 17.5187 86.2516C18.5506 82.8227 19.5739 79.4152 20.6549 75.8432C24.0731 76.7597 27.5704 76.843 31.4308 76.8494H32.0119C38.8632 76.8494 45.7851 76.6785 52.6428 76.3431C53.8221 79.6246 55.4051 83.7521 56.7703 87.0934L58.3533 86.4524C57.0715 83.2949 55.5761 79.4302 54.4267 76.2555L55.9948 76.1701C56.8365 76.1231 57.6868 76.0611 58.5264 75.9564C59.5262 78.1697 60.4961 80.4813 61.4361 82.7245C62.9316 86.3157 64.4954 90.0287 66.228 93.4555L67.7534 92.6842C66.0443 89.313 64.5061 85.6342 63.0128 82.0643C62.1262 79.9493 61.2118 77.7766 60.2697 75.6702C61.889 75.3219 63.408 74.728 64.6727 73.6513C67.3197 71.3953 68.0183 67.8361 68.2554 64.2021C71.8531 64.5397 75.3802 64.9029 78.4245 65.2489C75.6473 66.3171 73.7715 67.8318 73.7715 69.7823C73.7715 73.6064 80.9391 75.7855 88.192 76.059L83.0306 94.9915L84.6777 95.4402L89.6384 77.2511C90.9202 80.5646 92.2212 83.6004 93.5949 86.7921C94.8362 89.6826 96.1223 92.6736 97.4404 96.002L99.0299 95.3718C97.701 92.0198 96.4128 89.0182 95.1652 86.117C93.721 82.7608 92.3537 79.5733 91.0163 76.0761C98.3483 75.8411 105.702 73.6534 105.702 69.7802ZM36.2483 12.5874C38.8731 11.8805 41.6618 12.1055 44.1393 13.2241C46.6167 14.3427 48.6297 16.2857 49.8353 18.7221C51.0408 21.1585 51.3644 23.9375 50.7507 26.5856C50.1371 29.2338 48.6243 31.5872 46.47 33.2451C44.3157 34.9029 41.6533 35.7625 38.9363 35.6774C36.2193 35.5924 33.6159 34.5679 31.5695 32.7786C29.5232 30.9893 28.1605 28.5458 27.7137 25.8644C27.2669 23.1831 27.7636 20.4298 29.1192 18.0736C29.8858 16.7332 30.9106 15.5581 32.1343 14.6164C33.358 13.6747 34.7563 12.9851 36.2483 12.5874ZM40.0938 61.2027C35.0028 61.6086 32.8045 62.6404 30.9074 63.5292C30.5826 63.6808 30.2665 63.8283 29.9567 63.9564C29.4927 60.7692 28.7346 57.6317 27.6921 54.5842C31.4362 57.4537 35.6258 59.6896 40.0938 61.2027ZM54.51 59.5406C57.2873 57.4042 62.0963 54.5735 67.1979 51.7941C73.607 52.4927 80.7938 53.6954 89.1406 55.4515C88.8618 55.9878 88.6199 56.5424 88.4164 57.1115C87.6131 59.4401 86.7372 62.9972 86.3612 64.576C80.6955 63.5997 63.0256 61.8265 52.6065 61.271C53.2617 60.7099 53.8962 60.133 54.51 59.5406ZM90.713 40.3474C90.0571 40.8589 89.4935 41.4789 89.0466 42.1804C88.0489 43.7891 88.0361 45.9831 89.0124 47.7734C89.7432 49.0639 90.854 50.0978 92.1935 50.7344C91.5996 51.5142 90.777 52.6572 90.0208 53.8899C82.4431 52.2854 75.7989 51.1275 69.8235 50.3798C77.1961 46.4596 84.5645 42.9025 86.8034 41.9048L90.713 40.3474ZM82.3063 31.6566C82.3917 32.2551 82.5188 32.8469 82.6866 33.4277C83.3895 35.7777 84.7461 39.1745 85.3635 40.6807C80.9455 42.7273 67.8046 49.1642 59.0541 54.4774C61.6064 51.172 63.6593 47.5096 65.147 43.6075C65.691 42.1682 66.1518 40.6988 66.5271 39.2066C71.1523 36.7626 76.3651 34.2737 82.3063 31.6566ZM62.9145 4.69989C63.5169 5.27671 63.9464 6.12271 64.1963 7.21653C64.677 9.36786 64.3053 11.6645 63.8438 13.9183C61.4555 9.62634 57.939 6.06917 53.6747 3.6317C57.0822 2.81347 60.4598 2.34988 62.9145 4.69989ZM7.16587 26.0145C5.83277 22.6112 4.45481 19.0905 4.2839 15.4287C4.10231 11.5363 5.55504 7.96426 8.05033 6.11417C12.6521 2.71733 19.5867 3.58043 25.1413 4.27475L25.4938 4.31748C20.6658 7.43225 16.9512 11.9993 14.8852 17.3606C12.8193 22.7219 12.5086 28.6006 13.998 34.1498L14.0429 34.31C14.0557 34.3656 14.0706 34.4211 14.0856 34.4766C14.6377 36.5237 15.3653 38.5194 16.2604 40.4414L15.6494 40.0547L15.2456 39.7983C14.1897 39.1154 13.0665 38.5427 11.8937 38.0892L7.16587 26.0145ZM63.5511 72.3481C61.607 74.0059 58.8148 74.2922 55.8858 74.461C47.7676 74.9224 39.5426 75.1468 31.4201 75.1403C27.5426 75.1403 24.0603 75.0528 20.7211 74.0935C16.1044 72.769 11.7719 69.6563 8.51819 65.3344C5.67895 61.553 3.58317 56.8274 2.29281 51.2728C1.06866 46.0195 1.70958 42.4966 4.27322 40.5098C4.96785 39.9643 5.76457 39.5633 6.61649 39.3303C7.46842 39.0973 8.35833 39.0371 9.23388 39.1532C10.7827 39.3561 12.4043 40.0205 14.3377 41.2425L14.7414 41.501C17.5187 43.2529 20.6763 45.244 23.3425 49.4377C23.0596 49.3953 22.774 49.3732 22.4879 49.3714H22.4324C20.6432 49.3979 18.9346 50.1197 17.6683 51.3839C15.3824 53.7147 14.9188 57.1008 14.938 59.532C14.9551 61.6855 16.2775 65.1208 17.241 67.6267C17.4311 68.116 17.602 68.5625 17.743 68.947L19.3475 68.3638C19.2043 67.9728 19.0291 67.5092 18.8369 67.02C17.9823 64.7683 16.662 61.3693 16.6471 59.5256C16.63 57.4149 17.0039 54.4987 18.8796 52.5867C19.8302 51.6513 21.1033 51.1161 22.4367 51.0912C23.2148 51.0716 23.9797 51.2957 24.6243 51.7321C26.2116 54.9217 27.5404 59.1517 28.38 64.937C28.4036 65.1047 28.4644 65.265 28.5579 65.4062C28.6514 65.5474 28.7753 65.666 28.9205 65.7531C29.0632 65.8387 29.2231 65.8914 29.3887 65.9073C29.5543 65.9232 29.7213 65.9019 29.8776 65.845C30.4972 65.6185 31.0526 65.3579 31.6401 65.0823C33.9602 63.9928 36.7674 62.6703 45.721 62.7451H45.8128C46.9515 62.7451 48.1799 62.7878 49.4618 62.8434H49.5173H49.8164L50.3014 62.8669L50.6197 62.8818C54.745 63.0549 60.6414 63.5014 66.5271 64.0355C66.3284 67.3127 65.7409 70.4831 63.5511 72.3481ZM80.7553 65.5224C80.0183 65.4327 79.2385 65.3408 78.4245 65.2489C79.2342 65.3408 80.014 65.4327 80.7553 65.5224ZM82.7913 65.7788L82.3747 65.7254L82.7913 65.7788ZM82.3127 65.7168L81.8662 65.6591L82.3127 65.7168ZM81.7893 65.6506L81.3236 65.5929L81.7893 65.6506ZM81.3001 65.5886L80.7746 65.5245L81.3001 65.5886ZM100.134 72.8309C97.3699 73.8286 93.6761 74.3777 89.7345 74.3777C85.7929 74.3777 82.0991 73.8286 79.3346 72.8309C76.9163 71.9593 75.4721 70.8185 75.4721 69.7802C75.4721 68.7419 76.9163 67.599 79.3346 66.7273C80.4841 66.3225 81.6634 66.0082 82.8618 65.7873C84.6008 66.0138 85.9788 66.2274 86.8184 66.3983L99.0769 69.4426C99.1796 69.4682 99.285 69.4811 99.3909 69.4811C99.6794 69.4819 99.9597 69.3852 100.187 69.2069C100.413 69.0286 100.573 68.7789 100.641 68.4984L100.993 67.067C102.888 67.8852 103.984 68.8701 103.984 69.7802C103.993 70.8185 102.546 71.9593 100.13 72.8309H100.134Z" fill="#AFFF2C"/>
</g>
<defs>
<clipPath id="clip0_32_242">
<rect width="106" height="96" fill="white"/>
</clipPath>
</defs>
</svg>
